<svg id="icon-close" width="100%" height="100%" viewBox="0 0 100 100" xmlns="http://www.w3.org/2000/svg">
<path d="M50.1953 0C22.7324 0 0 22.3418 0 49.8047C0 77.2676 22.7324 100 50.1953 100C77.6582 100 100 77.2676 100 49.8047C100 22.3418 77.6582 0 50.1953 0ZM74.8477 66.1699C77.1328 68.4551 77.1328 72.1719 74.8477 74.459C72.5801 76.7246 68.8633 76.7617 66.5586 74.459L50.1953 58.0898L33.4395 74.4609C31.1543 76.7461 27.4375 76.7461 25.1504 74.4609C22.8652 72.1758 22.8652 68.459 25.1504 66.1719L41.5176 49.8047L25.1504 33.4375C22.8652 31.1504 22.8652 27.4336 25.1504 25.1484C27.4375 22.8633 31.1543 22.8633 33.4395 25.1484L50.1953 41.5195L66.5586 25.1484C68.8398 22.8672 72.5566 22.8594 74.8477 25.1484C77.1328 27.4336 77.1328 31.1504 74.8477 33.4375L58.4805 49.8047L74.8477 66.1699Z"/>
</svg>
